{
.appVersion = "3151";
.formatVersion = 3;
customParameters = (
{
name = vendorID;
value = GOOG;
},
{
name = panose;
value = (
2,
2,
3,
0,
0,
0,
0,
0,
0,
0
);
},
{
name = unicodeRanges;
value = (
0,
1,
7,
29,
36,
42,
43,
44,
45,
48,
49,
50,
51,
52,
54,
55,
57,
59,
61,
65,
66,
68
);
},
{
name = codePageRanges;
value = (
"1252",
"1250",
"1251",
"1258",
"932",
"936",
"bit 29",
"bit 30"
);
},
{
name = fsType;
value = (
);
},
{
name = ROS;
value = "Adobe-Identity-0";
}
);
date = "2017-05-01 10:59:01 +0000";
familyName = "Yaku Han MP";
featurePrefixes = (
{
automatic = 1;
code = "languagesystem DFLT dflt;
";
name = Languagesystems;
}
);
features = (
{
automatic = 1;
code = "feature vert;
feature vrt2;
";
tag = aalt;
},
{
code = "sub comma-han by comma-han.vert;
sub period-han by period-han.vert;
sub colon.full by colon.full.vert;
sub blacklenticularbracketleft by blacklenticularbracketleft.vert;
sub blacklenticularbracketright by blacklenticularbracketright.vert;
sub cornerbracketleft by cornerbracketleft.vert;
sub cornerbracketright by cornerbracketright.vert;
sub dblanglebracketleft by dblanglebracketleft.vert;
sub dblanglebracketright by dblanglebracketright.vert;
sub tortoiseshellbracketleft by tortoiseshellbracketleft.vert;
sub tortoiseshellbracketright by tortoiseshellbracketright.vert;
sub whitecornerbracketleft by whitecornerbracketleft.vert;
sub whitecornerbracketright by whitecornerbracketright.vert;
sub whitelenticularbracketleft by whitelenticularbracketleft.vert;
sub whitelenticularbracketright by whitelenticularbracketright.vert;
sub braceleft.full by braceleft.full.vert;
sub braceright.full by braceright.full.vert;
sub bracketleft.full by bracketleft.full.vert;
sub bracketright.full by bracketright.full.vert;
sub parenleft.full by parenleft.full.vert;
sub parenright.full by parenright.full.vert;
sub angleLeft by anglebracketleft.vert;
sub angleRight by anglebracketright.vert;";
tag = vert;
},
{
automatic = 1;
code = "sub comma-han by comma-han.vert;

glyphs = (
{
glyphname = .notdef;
layers = (
{
hints = (
{
horizontal = 1;
place = (-120, 50);
place = (-120, 50);
type = Stem;
},
{
horizontal = 1;
place = (830, 50);
place = (830, 50);
type = Stem;
},
{
place = (100, 50);
place = (100, 50);
type = Stem;
},
{
place = (850, 50);
place = (850, 50);
type = Stem;
},
{
horizontal = 1;
place = (789, 91);
place = (789, 91);
type = Stem;
}
);
layerId = m01;
shapes = (
{
closed = 1;
nodes = (
(100,-120,l),
(900,-120,l),
(900,880,l),
(100,880,l)
);
},
{
closed = 1;
nodes = (
(500,421,l),
(182,830,l),
(818,830,l)
);
},
{
closed = 1;
nodes = (
(532,380,l),
(850,789,l),
(850,-29,l)
);
},
{
closed = 1;
nodes = (
(182,-70,l),
(500,339,l),
(818,-70,l)
);
},
{
closed = 1;
nodes = (
(150,789,l),
(468,380,l),
(150,-29,l)
);
}
);
vertWidth = 1000;
width = 1000;
}
);
note = ".notdef";
},
{
glyphname = "comma-han";
kernLeft = "comma-han";
lastChange = "2023-08-28 01:06:08 +0000";
layers = (
{
hints = (
{
horizontal = 1;
place = (-76, 247);
place = (-76, 247);
type = Stem;
},
{
place = (40, 246);
place = (40, 246);
type = Stem;
}
);
layerId = m01;
shapes = (
{
closed = 1;
nodes = (
(40,154,l),
(129,93,o),
(174,35,o),
(206,-33,cs),
(220,-64,o),
(231,-76,o),
(251,-76,cs),
(272,-76,o),
(286,-62,o),
(286,-35,cs),
(286,-13,o),
(280,6,o),
(262,32,cs),
(229,79,o),
(169,131,o),
(52,171,c)
);
}
);
vertWidth = 1000;
width = 486;
}
);
note = cid01397;
unicode = 12289;
},
{
glyphname = "comma-han.vert";
kernBottom = comma.full.vert;
lastChange = "2023-08-28 01:06:49 +0000";
layers = (
{
hints = (
{
horizontal = 1;
place = (589, 242);
place = (589, 242);
type = Stem;
},
{
place = (694, 242);
place = (694, 242);
type = Stem;
}
);
layerId = m01;
shapes = (
{
closed = 1;
nodes = (
(694,815,l),
(781,755,o),
(824,697,o),
(856,631,cs),
(869,601,o),
(881,589,o),
(901,589,cs),
(921,589,o),
(936,603,o),
(936,630,cs),
(936,652,o),
(929,670,o),
(912,696,cs),
(880,742,o),
(820,792,o),
(706,831,c)
);
}
);
vertWidth = 491;
width = 1000;
}
);
note = cid59877;
unicode = 65041;
},
{
glyphname = "period-han";
kernLeft = "comma-han";
lastChange = "2023-08-28 01:06:13 +0000";
layers = (
{
hints = (
{
horizontal = 1;
place = (-81, 32);
place = (-81, 32);
type = Stem;
},
{
horizontal = 1;
place = (166, 32);
place = (166, 32);
type = Stem;
},
{
place = (43, 32);
place = (43, 32);
type = Stem;
},
{
place = (290, 32);
place = (290, 32);
type = Stem;
}
);
layerId = m01;
shapes = (
{
closed = 1;
nodes = (
(260,-81,o),
(322,-18,o),
(322,59,cs),
(322,136,o),
(260,198,o),
(183,198,cs),
(106,198,o),
(43,136,o),
(43,59,cs),
(43,-18,o),
(106,-81,o),
(183,-81,cs)
);
},
{
closed = 1;
nodes = (
(242,166,o),
(290,118,o),
(290,59,cs),
(290,0,o),
(242,-49,o),
(183,-49,cs),
(123,-49,o),
(75,0,o),
(75,59,cs),
(75,118,o),
(123,166,o),
(183,166,cs)
);
}
);
vertWidth = 1000;
width = 722;
}
);
note = cid01398;
unicode = 12290;
},
{
glyphname = "period-han.vert";
kernBottom = comma.full.vert;
lastChange = "2023-08-28 01:06:54 +0000";
layers = (
{
hints = (
{
horizontal = 1;
place = (542, 31);
place = (542, 31);
type = Stem;
},
{
horizontal = 1;
place = (784, 32);
place = (784, 32);
type = Stem;
},
{
place = (677, 32);
place = (677, 32);
type = Stem;
},
{
place = (919, 32);
place = (919, 32);
type = Stem;
}
);
layerId = m01;
shapes = (
{
closed = 1;
nodes = (
(890,542,o),
(951,604,o),
(951,679,cs),
(951,755,o),
(890,816,o),
(815,816,cs),
(739,816,o),
(677,755,o),
(677,679,cs),
(677,604,o),
(739,542,o),
(815,542,cs)
);
},
{
closed = 1;
nodes = (
(872,784,o),
(919,737,o),
(919,679,cs),
(919,621,o),
(872,573,o),
(815,573,cs),
(756,573,o),
(709,621,o),
(709,679,cs),
(709,737,o),
(756,784,o),
(815,784,cs)
);
}
);
vertWidth = 738;
width = 1000;
}
);
note = cid59878;
unicode = 65042;
},
{
glyphname = "dot-kata";
lastChange = "2023-08-28 01:06:19 +0000";
layers = (
{
hints = (
{
horizontal = 1;
place = (292, 176);
place = (292, 176);
type = Stem;
},
{
place = (412, 176);
place = (412, 176);
type = Stem;
}
);
layerId = m01;
shapes = (
{
closed = 1;
nodes = (
(326,429,o),
(287,468,o),
(238,468,cs),
(189,468,o),
(150,429,o),
(150,380,cs),
(150,331,o),
(189,292,o),
(238,292,cs),
(287,292,o),
(326,331,o),
(326,380,cs)
);
}
);
vertWidth = 1000;
width = 476;
}
);
note = cid01644;
unicode = 12539;
},
{
glyphname = hyphenationpoint;
lastChange = "2023-08-28 01:06:19 +0000";
layers = (
{
hints = (
{
horizontal = 1;
place = (326, 108);
place = (326, 108);
type = Stem;
},
{
place = (446, 108);
place = (446, 108);
type = Stem;
}
);
layerId = m01;
shapes = (
{
closed = 1;
nodes = (
(150,350,o),
(174,326,o),
(204,326,cs),
(234,326,o),
(258,350,o),
(258,380,cs),
(258,410,o),
(234,434,o),
(204,434,cs),
(174,434,o),
(150,410,o),
(150,380,cs)
);
}
);
vertWidth = 1000;
width = 408;
}
);
note = cid00729;
unicode = 8231;
},
{
glyphname = colon.full;
lastChange = "2023-08-28 01:06:19 +0000";
layers = (
{
hints = (
{
horizontal = 1;
place = (35, 124);
place = (35, 124);
type = Stem;
},
{
horizontal = 1;
place = (529, 124);
place = (529, 124);
type = Stem;
},
{
place = (438, 124);
place = (438, 124);
type = Stem;
}
);
layerId = m01;
shapes = (
{
closed = 1;
nodes = (
(150,63,o),
(178,35,o),
(213,35,cs),
(247,35,o),
(274,63,o),
(274,97,cs),
(274,131,o),
(247,159,o),
(213,159,cs),
(178,159,o),
(150,131,o),
(150,97,cs)
);
},
{
closed = 1;
nodes = (
(150,557,o),
(178,529,o),
(213,529,cs),
(247,529,o),
(274,557,o),
(274,591,cs),
(274,625,o),
(247,653,o),
(213,653,cs),
(178,653,o),
(150,625,o),
(150,591,cs)
);
}
);
vertWidth = 1000;
width = 424;
}
);
note = cid59969;
unicode = 65306;
},
{
glyphname = exclam.full;
lastChange = "2023-08-28 01:06:19 +0000";
layers = (
{
hints = (
{
horizontal = 1;
place = (-12, 116);
place = (-12, 116);
type = Stem;
},
{
place = (441, 118);
place = (441, 118);
type = Stem;
},
{
place = (479, 42);
place = (479, 42);
type = Stem;
}
);
layerId = m01;
shapes = (
{
closed = 1;
nodes = (
(244,-12,o),
(268,15,o),
(268,46,cs),
(268,78,o),
(244,104,o),
(209,104,cs),
(174,104,o),
(150,78,o),
(150,46,cs),
(150,15,o),
(174,-12,o),
(209,-12,cs)
);
},
{
closed = 1;
nodes = (
(177,764,o),
(159,745,o),
(159,700,cs),
(159,645,o),
(166,554,o),
(182,374,cs),
(194,207,l),
(224,207,l),
(236,374,ls),
(252,553,o),
(259,645,o),
(259,701,cs),
(259,745,o),
(241,764,o),
(209,764,cs)
);
}
);
vertWidth = 1000;
width = 418;
}
);
note = cid59944;
unicode = 65281;
},
{
glyphname = question.full;
lastChange = "2023-08-28 01:06:19 +0000";
layers = (
{
hints = (
{
horizontal = 1;
place = (-12, 114);
place = (-12, 114);
type = Stem;
},
{
horizontal = 1;
place = (730, 34);
place = (730, 34);
type = Stem;
},
{
place = (394, 116);
place = (394, 116);
type = Stem;
},
{
place = (640, 72);
place = (640, 72);
type = Stem;
},
{
place = (428, 41);
place = (428, 41);
type = Stem;
}
);
layerId = m01;
shapes = (
{
closed = 1;
nodes = (
(322,102,o),
(299,77,o),
(299,45,cs),
(299,14,o),
(322,-12,o),
(356,-12,cs),
(391,-12,o),
(415,14,o),
(415,45,cs),
(415,77,o),
(391,102,o),
(356,102,cs)
);
},
{
closed = 1;
nodes = (
(274,709,l),
(314,725,o),
(340,730,o),
(382,730,cs),
(482,730,o),
(545,686,o),
(545,596,cs),
(545,532,o),
(516,492,o),
(436,432,cs),
(358,373,o),
(333,345,o),
(333,297,cs),
(333,266,o),
(335,238,o),
(339,200,c),
(372,200,l),
(376,272,ls),
(379,325,o),
(397,345,o),
(483,401,cs),
(580,464,o),
(617,521,o),
(617,595,cs),
(617,689,o),
(549,764,o),
(395,764,cs),
(262,764,o),
(163,698,o),
(150,591,c),
(159,572,o),
(174,565,o),
(192,565,cs),
(217,565,o),
(236,579,o),
(248,622,cs)
);
}
);
vertWidth = 1000;
width = 767;
}
);
note = cid59974;
unicode = 65311;
},
{
glyphname = semicolon.full;
lastChange = "2023-08-28 01:06:19 +0000";
layers = (
{
hints = (
{
horizontal = 1;
place = (529, 124);
place = (529, 124);
type = Stem;
},
{
place = (516, 46);
place = (516, 46);
type = Stem;
},
{
place = (437, 125);
place = (437, 125);
type = Stem;
}
);
layerId = m01;
shapes = (
{
closed = 1;
nodes = (
(164,-82,l),
(261,-39,o),
(291,53,o),
(291,123,cs),
(291,170,o),
(267,208,o),
(224,208,cs),
(185,208,o),
(165,182,o),
(165,153,cs),
(165,106,o),
(209,91,o),
(245,79,c),
(244,40,o),
(223,-22,o),
(150,-58,c)
);
},
{
closed = 1;
nodes = (
(166,557,o),
(194,529,o),
(229,529,cs),
(263,529,o),
(291,557,o),
(291,591,cs),
(291,625,o),
(263,653,o),
(229,653,cs),
(194,653,o),
(166,625,o),
(166,591,cs)
);
}
);
vertWidth = 1000;
width = 441;
}
);
note = cid59970;
unicode = 65307;
},
{
glyphname = colon.full.vert;
lastChange = "2023-08-28 01:07:01 +0000";
layers = (
{
hints = (
{
horizontal = 1;
place = (318, 125);
place = (318, 125);
type = Stem;
},
{
place = (192, 124);
place = (192, 124);
type = Stem;
},
{
place = (686, 124);
place = (686, 124);
type = Stem;
}
);
layerId = m01;
shapes = (
{
closed = 1;
nodes = (
(686,633,o),
(714,605,o),
(749,605,cs),
(782,605,o),
(810,633,o),
(810,668,cs),
(810,702,o),
(782,730,o),
(749,730,cs),
(714,730,o),
(686,702,o),
(686,668,cs)
);
},
{
closed = 1;
nodes = (
(192,633,o),
(220,605,o),
(254,605,cs),
(288,605,o),
(316,633,o),
(316,668,cs),
(316,702,o),
(288,730,o),
(254,730,cs),
(220,730,o),
(192,702,o),
(192,668,cs)
);
}
);
vertWidth = 425;
width = 1000;
}
);
note = cid64716;
},
{
glyphname = angleLeft;
lastChange = "2023-08-28 01:06:32 +0000";
layers = (
{
hints = (
{
horizontal = 1;
place = (-89, 938);
place = (-89, 938);
type = Stem;
},
{
place = (533, 428);
place = (533, 428);
type = Stem;
}
);
layerId = m01;
shapes = (
{
closed = 1;
nodes = (
(628,823,l),
(598,849,l),
(200,380,l),
(598,-89,l),
(628,-63,l),
(253,380,l)
);
}
);
vertWidth = 1000;
width = 667;
}
);
note = cid01404;
unicode = (9001,12296);
},
{
glyphname = angleRight;
lastChange = "2023-08-28 01:06:42 +0000";
layers = (
{
hints = (
{
horizontal = 1;
place = (-89, 938);
place = (-89, 938);
type = Stem;
},
{
place = (39, 428);
place = (39, 428);
type = Stem;
}
);
layerId = m01;
shapes = (
{
closed = 1;
nodes = (
(39,-63,l),
(69,-89,l),
(467,380,l),
(69,849,l),
(39,823,l),
(414,380,l)
);
}
);
vertWidth = 1000;
width = 667;
}
);
note = cid01405;
unicode = (9002,12297);
},
{
glyphname = blacklenticularbracketleft;
lastChange = "2023-08-28 01:06:32 +0000";
layers = (
{
hints = (
{
horizontal = 1;
place = (-81, 17);
place = (-81, 17);
type = Stem;
},
{
horizontal = 1;
place = (824, 17);
place = (824, 17);
type = Stem;
},
{
place = (618, 80);
place = (618, 80);
type = Stem;
}
);
layerId = m01;
shapes = (
{
closed = 1;
nodes = (
(543,-64,l),
(385,7,o),
(280,160,o),
(280,380,cs),
(280,600,o),
(385,753,o),
(543,824,c),
(543,841,l),
(200,841,l),
(200,-81,l),
(543,-81,l)
);
}
);
vertWidth = 1000;
width = 582;
}
);
note = cid01412;
unicode = 12304;
},
{
glyphname = blacklenticularbracketright;
lastChange = "2023-08-28 01:06:42 +0000";
layers = (
{
hints = (
{
horizontal = 1;
place = (-81, 17);
place = (-81, 17);
type = Stem;
},
{
horizontal = 1;
place = (824, 17);
place = (824, 17);
type = Stem;
},
{
place = (302, 80);
place = (302, 80);
type = Stem;
}
);
layerId = m01;
shapes = (
{
closed = 1;
nodes = (
(39,-81,l),
(382,-81,l),
(382,841,l),
(39,841,l),
(39,824,l),
(197,753,o),
(302,600,o),
(302,380,cs),
(302,160,o),
(197,7,o),
(39,-64,c)
);
}
);
vertWidth = 1000;
width = 582;
}
);
note = cid01413;
unicode = 12305;
},
{
glyphname = braceleft.full;
lastChange = "2023-08-28 01:06:32 +0000";
layers = (
{
hints = (
{
horizontal = 1;
place = (-106, 38.5);
place = (-106, 38.5);
type = Stem;
},
{
horizontal = 1;
place = (828, 39);
place = (828, 39);
type = Stem;
},
{
place = (713, 61);
place = (713, 61);
type = Stem;
},
{
place = (738, 46);
place = (738, 46);
type = Stem;
}
);
layerId = m01;
shapes = (
{
closed = 1;
nodes = (
(589,829,l),
(589,867,l),
(534,867,ls),
(393,867,o),
(330,816,o),
(330,726,cs),
(330,642,o),
(355,556,o),
(355,501,cs),
(355,446,o),
(318,413,o),
(200,398,c),
(200,363,l),
(318,348,o),
(355,314,o),
(355,260,cs),
(355,204,o),
(330,119,o),
(330,34,cs),
(330,-56,o),
(393,-106,o),
(534,-106,cs),
(589,-106,l),
(589,-69,l),
(533,-66,ls),
(424,-60,o),
(391,-29,o),
(391,41,cs),
(391,121,o),
(401,189,o),
(401,250,cs),
(401,309,o),
(369,361,o),
(282,380,c),
(369,399,o),
(401,451,o),
(401,510,cs),
(401,571,o),
(391,639,o),
(391,721,cs),
(391,789,o),
(424,822,o),
(533,827,cs)
);
}
);
vertWidth = 1000;
width = 617;
}
);
note = cid60034;
unicode = 65371;
},
{
glyphname = braceright.full;
lastChange = "2023-08-28 01:06:42 +0000";
layers = (
{
hints = (
{
horizontal = 1;
place = (-106, 39);
place = (-106, 39);
type = Stem;
},
{
horizontal = 1;
place = (828.5, 38.5);
place = (828.5, 38.5);
type = Stem;
},
{
place = (226, 61);
place = (226, 61);
type = Stem;
},
{
place = (216, 46);
place = (216, 46);
type = Stem;
}
);
layerId = m01;
shapes = (
{
closed = 1;
nodes = (
(417,398,l),
(299,413,o),
(262,447,o),
(262,501,cs),
(262,557,o),
(287,642,o),
(287,727,cs),
(287,817,o),
(224,867,o),
(83,867,cs),
(28,867,l),
(28,830,l),
(84,827,ls),
(193,821,o),
(226,790,o),
(226,720,cs),
(226,640,o),
(216,572,o),
(216,511,cs),
(216,452,o),
(248,400,o),
(335,381,c),
(248,362,o),
(216,310,o),
(216,251,cs),
(216,190,o),
(226,122,o),
(226,40,cs),
(226,-28,o),
(193,-61,o),
(84,-66,cs),
(28,-68,l),
(28,-106,l),
(83,-106,ls),
(224,-106,o),
(287,-55,o),
(287,35,cs),
(287,119,o),
(262,205,o),
(262,260,cs),
(262,315,o),
(299,348,o),
(417,363,c)
);
}
);
vertWidth = 1000;
width = 617;
}
);
note = cid60036;
unicode = 65373;
},
{
glyphname = cornerbracketleft;
lastChange = "2023-08-28 01:06:32 +0000";
layers = (
{
hints = (
{
horizontal = 1;
place = (807, 34);
place = (807, 34);
type = Stem;
},
{
place = (659, 36);
place = (659, 36);
type = Stem;
}
);
layerId = m01;
shapes = (
{
closed = 1;
nodes = (
(200,189,l),
(236,189,l),
(236,807,l),
(502,807,l),
(502,841,l),
(200,841,l)
);
}
);
vertWidth = 1000;
width = 541;
}
);
note = cid01408;
unicode = 12300;
},
{
glyphname = cornerbracketright;
lastChange = "2023-08-28 01:06:42 +0000";
layers = (
{
hints = (
{
horizontal = 1;
place = (-81, 34);
place = (-81, 34);
type = Stem;
},
{
place = (305, 36);
place = (305, 36);
type = Stem;
}
);
layerId = m01;
shapes = (
{
closed = 1;
nodes = (
(341,571,l),
(305,571,l),
(305,-47,l),
(39,-47,l),
(39,-81,l),
(341,-81,l)
);
}
);
vertWidth = 1000;
width = 541;
}
);
note = cid01409;
unicode = 12301;
},
{
glyphname = dblanglebracketleft;
lastChange = "2023-08-28 01:06:32 +0000";
layers = (
{
hints = (
{
horizontal = 1;
place = (-84, 928);
place = (-84, 928);
type = Stem;
},
{
place = (522, 438);
place = (522, 438);
type = Stem;
}
);
layerId = m01;
shapes = (
{
closed = 1;
nodes = (
(240,380,l),
(496,826,l),
(467,844,l),
(200,380,l),
(467,-84,l),
(496,-66,l)
);
},
{
closed = 1;
nodes = (
(383,380,l),
(638,826,l),
(609,844,l),
(343,380,l),
(609,-84,l),
(638,-66,l)
);
}
);
vertWidth = 1000;
width = 678;
}
);
note = cid01406;
unicode = 12298;
},
{
glyphname = dblanglebracketright;
lastChange = "2023-08-28 01:06:42 +0000";
layers = (
{
hints = (
{
horizontal = 1;
place = (-84, 928);
place = (-84, 928);
type = Stem;
},
{
place = (40, 438);
place = (40, 438);
type = Stem;
}
);
layerId = m01;
shapes = (
{
closed = 1;
nodes = (
(211,-84,l),
(478,380,l),
(211,844,l),
(182,826,l),
(438,380,l),
(182,-66,l)
);
},
{
closed = 1;
nodes = (
(69,-84,l),
(335,380,l),
(69,844,l),
(40,826,l),
(295,380,l),
(40,-66,l)
);
}
);
vertWidth = 1000;
width = 678;
}
);
note = cid01407;
unicode = 12299;
},
{
glyphname = tortoiseshellbracketleft;
lastChange = "2023-08-28 01:06:32 +0000";
layers = (
{
hints = (
{
horizontal = 1;
place = (-87, 934);
place = (-87, 934);
type = Stem;
},
{
place = (711, 37);
place = (711, 37);
type = Stem;
}
);
layerId = m01;
shapes = (
{
closed = 1;
nodes = (
(433,-87,l),
(450,-55,l),
(237,44,l),
(237,716,l),
(450,815,l),
(433,847,l),
(200,738,l),
(200,22,l)
);
}
);
vertWidth = 1000;
width = 489;
}
);
note = cid01416;
unicode = 12308;
},
{
glyphname = tortoiseshellbracketright;
lastChange = "2023-08-28 01:06:42 +0000";
layers = (
{
hints = (
{
horizontal = 1;
place = (-87, 934);
place = (-87, 934);
type = Stem;
},
{
place = (252, 37);
place = (252, 37);
type = Stem;
}
);
layerId = m01;
shapes = (
{
closed = 1;
nodes = (
(56,-87,l),
(289,22,l),
(289,738,l),
(56,847,l),
(39,815,l),
(252,716,l),
(252,44,l),
(39,-55,l)
);
}
);
vertWidth = 1000;
width = 489;
}
);
note = cid01417;
unicode = 12309;
},
{
glyphname = whitecornerbracketleft;
lastChange = "2023-08-28 01:06:32 +0000";
layers = (
{
hints = (
{
horizontal = 1;
place = (180, 28);
place = (180, 28);
type = Stem;
},
{
horizontal = 1;
place = (696, 28);
place = (696, 28);
type = Stem;
},
{
horizontal = 1;
place = (814, 28);
place = (814, 28);
type = Stem;
},
{
place = (602, 28);
place = (602, 28);
type = Stem;
},
{
place = (724, 28);
place = (724, 28);
type = Stem;
},
{
place = (933, 28);
place = (933, 28);
type = Stem;
}
);
layerId = m01;
shapes = (
{
closed = 1;
nodes = (
(559,696,l),
(559,842,l),
(200,842,l),
(200,180,l),
(350,180,l),
(350,696,l)
);
},
{
closed = 1;
nodes = (
(531,814,l),
(531,724,l),
(322,724,l),
(322,208,l),
(228,208,l),
(228,814,l)
);
}
);
vertWidth = 1000;
width = 598;
}
);
note = cid01410;
unicode = 12302;
},
{
glyphname = whitecornerbracketright;
lastChange = "2023-08-28 01:06:42 +0000";
layers = (
{
hints = (
{
horizontal = 1;
place = (-81, 28);
place = (-81, 28);
type = Stem;
},
{
horizontal = 1;
place = (37, 28);
place = (37, 28);
type = Stem;
},
{
horizontal = 1;
place = (552, 28);
place = (552, 28);
type = Stem;
},
{
place = (39, 28);
place = (39, 28);
type = Stem;
},
{
place = (248, 28);
place = (248, 28);
type = Stem;
},
{
place = (370, 28);
place = (370, 28);
type = Stem;
}
);
layerId = m01;
shapes = (
{
closed = 1;
nodes = (
(39,65,l),
(39,-81,l),
(398,-81,l),
(398,580,l),
(248,580,l),
(248,65,l)
);
},
{
closed = 1;
nodes = (
(67,-53,l),
(67,37,l),
(276,37,l),
(276,552,l),
(370,552,l),
(370,-53,l)
);
}
);
vertWidth = 1000;
width = 598;
}
);
note = cid01411;
unicode = 12303;
},
{
glyphname = whitelenticularbracketleft;
lastChange = "2023-08-28 01:06:32 +0000";
layers = (
{
hints = (
{
horizontal = 1;
place = (-81, 28);
place = (-81, 28);
type = Stem;
},
{
horizontal = 1;
place = (813, 28);
place = (813, 28);
type = Stem;
},
{
place = (610, 28);
place = (610, 28);
type = Stem;
},
{
place = (673, 28);
place = (673, 28);
type = Stem;
},
{
horizontal = 1;
place = (820, 21);
place = (820, 21);
type = Stem;
}
);
layerId = m01;
shapes = (
{
closed = 1;
nodes = (
(551,-60,l),
(402,4,o),
(291,160,o),
(291,380,cs),
(291,600,o),
(402,756,o),
(551,820,c),
(551,841,l),
(200,841,l),
(200,-81,l),
(551,-81,l)
);
},
{
closed = 1;
nodes = (
(228,-53,l),
(228,813,l),
(480,813,l),
(395,761,o),
(263,629,o),
(263,380,cs),
(263,131,o),
(395,-1,o),
(480,-53,c)
);
}
);
vertWidth = 1000;
width = 590;
}
);
note = cid01418;
unicode = 12310;
},
{
glyphname = whitelenticularbracketright;
lastChange = "2023-08-28 01:06:42 +0000";
layers = (
{
hints = (
{
horizontal = 1;
place = (-81, 28);
place = (-81, 28);
type = Stem;
},
{
horizontal = 1;
place = (813, 28);
place = (813, 28);
type = Stem;
},
{
place = (299, 28);
place = (299, 28);
type = Stem;
},
{
place = (362, 28);
place = (362, 28);
type = Stem;
},
{
horizontal = 1;
place = (820, 21);
place = (820, 21);
type = Stem;
}
);
layerId = m01;
shapes = (
{
closed = 1;
nodes = (
(390,-81,l),
(390,841,l),
(39,841,l),
(39,820,l),
(189,756,o),
(299,600,o),
(299,380,cs),
(299,160,o),
(189,4,o),
(39,-60,c),
(39,-81,l)
);
},
{
closed = 1;
nodes = (
(327,629,o),
(195,761,o),
(110,813,c),
(362,813,l),
(362,-53,l),
(110,-53,l),
(195,-1,o),
(327,131,o),
(327,380,cs)
);
}
);
vertWidth = 1000;
width = 590;
}
);
note = cid01419;
unicode = 12311;
},
{
glyphname = anglebracketleft.vert;
lastChange = "2023-08-28 01:07:08 +0000";
layers = (
{
hints = (
{
horizontal = 1;
place = (-81, 428);
place = (-81, 428);
type = Stem;
},
{
place = (31, 938);
place = (31, 938);
type = Stem;
}
);
layerId = m01;
shapes = (
{
closed = 1;
nodes = (
(943,252,l),
(969,282,l),
(500,680,l),
(31,282,l),
(57,252,l),
(500,627,l)
);
}
);
vertWidth = 667;
width = 1000;
}
);
note = cid59901;
unicode = 65087;
},
{
glyphname = anglebracketright.vert;
lastChange = "2023-08-28 01:07:14 +0000";
layers = (
{
hints = (
{
horizontal = 1;
place = (413, 428);
place = (413, 428);
type = Stem;
},
{
place = (31, 938);
place = (31, 938);
type = Stem;
}
);
layerId = m01;
shapes = (
{
closed = 1;
nodes = (
(57,841,l),
(31,811,l),
(500,413,l),
(969,811,l),
(943,841,l),
(500,466,l)
);
}
);
vertWidth = 667;
width = 1000;
}
);
note = cid59902;
unicode = 65088;
},
{
glyphname = blacklenticularbracketleft.vert;
lastChange = "2023-08-28 01:07:20 +0000";
layers = (
{
hints = (
{
horizontal = 1;
place = (182, 80);
place = (182, 80);
type = Stem;
},
{
place = (39, 17);
place = (39, 17);
type = Stem;
},
{
place = (944, 17);
place = (944, 17);
type = Stem;
}
);
layerId = m01;
shapes = (
{
closed = 1;
nodes = (
(56,337,l),
(127,495,o),
(280,600,o),
(500,600,cs),
(720,600,o),
(873,495,o),
(944,337,c),
(961,337,l),
(961,680,l),
(39,680,l),
(39,337,l)
);
}
);
vertWidth = 582;
width = 1000;
}
);
note = cid59897;
unicode = 65083;
},
{
glyphname = blacklenticularbracketright.vert;
lastChange = "2023-08-28 01:07:26 +0000";
layers = (
{
hints = (
{
horizontal = 1;
place = (498, 80);
place = (498, 80);
type = Stem;
},
{
place = (39, 17);
place = (39, 17);
type = Stem;
},
{
place = (944, 17);
place = (944, 17);
type = Stem;
}
);
layerId = m01;
shapes = (
{
closed = 1;
nodes = (
(944,841,l),
(873,683,o),
(720,578,o),
(500,578,cs),
(280,578,o),
(127,683,o),
(56,841,c),
(39,841,l),
(39,498,l),
(961,498,l),
(961,841,l)
);
}
);
vertWidth = 582;
width = 1000;
}
);
note = cid59898;
unicode = 65084;
},
{
glyphname = bracketleft.full;
lastChange = "2023-08-28 01:06:32 +0000";
layers = (
{
hints = (
{
horizontal = 1;
place = (-81, 34);
place = (-81, 34);
type = Stem;
},
{
horizontal = 1;
place = (807, 34);
place = (807, 34);
type = Stem;
},
{
place = (711, 37);
place = (711, 37);
type = Stem;
}
);
layerId = m01;
shapes = (
{
closed = 1;
nodes = (
(200,-81,l),
(450,-81,l),
(450,-47,l),
(237,-47,l),
(237,807,l),
(450,807,l),
(450,841,l),
(200,841,l)
);
}
);
vertWidth = 1000;
width = 489;
}
);
note = cid60002;
unicode = 65339;
},
{
glyphname = bracketright.full;
lastChange = "2023-08-28 01:06:42 +0000";
layers = (
{
hints = (
{
horizontal = 1;
place = (-81, 34);
place = (-81, 34);
type = Stem;
},
{
horizontal = 1;
place = (807, 34);
place = (807, 34);
type = Stem;
},
{
place = (252, 37);
place = (252, 37);
type = Stem;
}
);
layerId = m01;
shapes = (
{
closed = 1;
nodes = (
(289,-81,l),
(289,841,l),
(39,841,l),
(39,807,l),
(252,807,l),
(252,-47,l),
(39,-47,l),
(39,-81,l)
);
}
);
vertWidth = 1000;
width = 489;
}
);
note = cid60004;
unicode = 65341;
},
{
glyphname = cornerbracketleft.vert;
lastChange = "2023-08-28 01:07:31 +0000";
layers = (
{
hints = (
{
horizontal = 1;
place = (187, 34);
place = (187, 34);
type = Stem;
},
{
place = (938, 37);
place = (938, 37);
type = Stem;
}
);
layerId = m01;
shapes = (
{
closed = 1;
nodes = (
(258,680,l),
(258,646,l),
(938,646,l),
(938,378,l),
(975,378,l),
(975,680,l)
);
}
);
vertWidth = 541;
width = 1000;
}
);
note = cid59903;
unicode = 65089;
},
{
glyphname = cornerbracketright.vert;
lastChange = "2023-08-28 01:07:37 +0000";
layers = (
{
hints = (
{
horizontal = 1;
place = (537, 34);
place = (537, 34);
type = Stem;
},
{
place = (25, 37);
place = (25, 37);
type = Stem;
}
);
layerId = m01;
shapes = (
{
closed = 1;
nodes = (
(742,537,l),
(742,571,l),
(62,571,l),
(62,840,l),
(25,840,l),
(25,537,l)
);
}
);
vertWidth = 543;
width = 1000;
}
);
note = cid59904;
unicode = 65090;
},
{
glyphname = dblanglebracketleft.vert;
lastChange = "2023-08-28 01:07:43 +0000";
layers = (
{
hints = (
{
horizontal = 1;
place = (-80, 438);
place = (-80, 438);
type = Stem;
},
{
place = (36, 928);
place = (36, 928);
type = Stem;
}
);
layerId = m01;
shapes = (
{
closed = 1;
nodes = (
(500,640,l),
(946,384,l),
(964,413,l),
(500,680,l),
(36,413,l),
(54,384,l)
);
},
{
closed = 1;
nodes = (
(500,497,l),
(946,242,l),
(964,271,l),
(500,537,l),
(36,271,l),
(54,242,l)
);
}
);
vertWidth = 678;
width = 1000;
}
);
note = cid59899;
unicode = 65085;
},
{
glyphname = dblanglebracketright.vert;
lastChange = "2023-08-28 01:07:48 +0000";
layers = (
{
hints = (
{
horizontal = 1;
place = (402, 438);
place = (402, 438);
type = Stem;
},
{
place = (36, 928);
place = (36, 928);
type = Stem;
}
);
layerId = m01;
shapes = (
{
closed = 1;
nodes = (
(36,669,l),
(500,402,l),
(964,669,l),
(946,698,l),
(500,442,l),
(54,698,l)
);
},
{
closed = 1;
nodes = (
(36,811,l),
(500,545,l),
(964,811,l),
(946,840,l),
(500,585,l),
(54,840,l)
);
}
);
vertWidth = 678;
width = 1000;
}
);
note = cid59900;
unicode = 65086;
},
{
glyphname = parenleft.full;
lastChange = "2023-08-28 01:06:32 +0000";
layers = (
{
hints = (
{
horizontal = 1;
place = (-87, 934);
place = (-87, 934);
type = Stem;
},
{
place = (653, 59);
place = (653, 59);
type = Stem;
}
);
layerId = m01;
shapes = (
{
closed = 1;
nodes = (
(200,140,o),
(333,-1,o),
(465,-87,c),
(484,-66,l),
(366,26,o),
(259,172,o),
(259,380,cs),
(259,588,o),
(366,734,o),
(484,826,c),
(465,847,l),
(333,761,o),
(200,620,o),
(200,380,cs)
);
}
);
vertWidth = 1000;
width = 547;
}
);
note = cid59951;
unicode = 65288;
},
{
glyphname = parenright.full;
lastChange = "2023-08-28 01:06:42 +0000";
layers = (
{
hints = (
{
horizontal = 1;
place = (-87, 934);
place = (-87, 934);
type = Stem;
},
{
place = (288, 59);
place = (288, 59);
type = Stem;
}
);
layerId = m01;
shapes = (
{
closed = 1;
nodes = (
(63,826,l),
(181,734,o),
(288,588,o),
(288,380,cs),
(288,172,o),
(181,26,o),
(63,-66,c),
(82,-87,l),
(214,-1,o),
(347,140,o),
(347,380,cs),
(347,620,o),
(214,761,o),
(82,847,c)
);
}
);
vertWidth = 1000;
width = 547;
}
);
note = cid59952;
unicode = 65289;
},
{
glyphname = tortoiseshellbracketleft.vert;
lastChange = "2023-08-28 01:07:54 +0000";
layers = (
{
hints = (
{
horizontal = 1;
place = (133, 36);
place = (133, 36);
type = Stem;
},
{
place = (33, 934);
place = (33, 934);
type = Stem;
}
);
layerId = m01;
shapes = (
{
closed = 1;
nodes = (
(142,680,l),
(33,447,l),
(65,430,l),
(166,644,l),
(834,644,l),
(935,430,l),
(967,447,l),
(858,680,l)
);
}
);
vertWidth = 489;
width = 1000;
}
);
note = cid59895;
unicode = 65081;
},
{
glyphname = tortoiseshellbracketright.vert;
lastChange = "2023-08-28 01:07:59 +0000";
layers = (
{
hints = (
{
horizontal = 1;
place = (591, 36);
place = (591, 36);
type = Stem;
},
{
place = (33, 934);
place = (33, 934);
type = Stem;
}
);
layerId = m01;
shapes = (
{
closed = 1;
nodes = (
(967,824,l),
(935,841,l),
(834,627,l),
(166,627,l),
(65,841,l),
(33,824,l),
(142,591,l),
(858,591,l)
);
}
);
vertWidth = 489;
width = 1000;
}
);
note = cid59896;
unicode = 65082;
},
{
glyphname = whitecornerbracketleft.vert;
lastChange = "2023-08-28 01:08:04 +0000";
layers = (
{
hints = (
{
horizontal = 1;
place = (-81, 28);
place = (-81, 28);
type = Stem;
},
{
horizontal = 1;
place = (122, 28);
place = (122, 28);
type = Stem;
},
{
horizontal = 1;
place = (240, 28);
place = (240, 28);
type = Stem;
},
{
place = (300, 28);
place = (300, 28);
type = Stem;
},
{
place = (811, 28);
place = (811, 28);
type = Stem;
},
{
place = (933, 28);
place = (933, 28);
type = Stem;
}
);
layerId = m01;
shapes = (
{
closed = 1;
nodes = (
(811,331,l),
(961,331,l),
(961,680,l),
(300,680,l),
(300,534,l),
(811,534,l)
);
},
{
closed = 1;
nodes = (
(933,359,l),
(839,359,l),
(839,562,l),
(328,562,l),
(328,652,l),
(933,652,l)
);
}
);
vertWidth = 588;
width = 1000;
}
);
note = cid59905;
unicode = 65091;
},
{
glyphname = whitecornerbracketright.vert;
lastChange = "2023-08-28 01:08:10 +0000";
layers = (
{
hints = (
{
horizontal = 1;
place = (492, 28);
place = (492, 28);
type = Stem;
},
{
horizontal = 1;
place = (610, 28);
place = (610, 28);
type = Stem;
},
{
horizontal = 1;
place = (813, 28);
place = (813, 28);
type = Stem;
},
{
place = (39, 28);
place = (39, 28);
type = Stem;
},
{
place = (161, 28);
place = (161, 28);
type = Stem;
},
{
place = (672, 28);
place = (672, 28);
type = Stem;
}
);
layerId = m01;
shapes = (
{
closed = 1;
nodes = (
(189,841,l),
(39,841,l),
(39,492,l),
(700,492,l),
(700,638,l),
(189,638,l)
);
},
{
closed = 1;
nodes = (
(67,813,l),
(161,813,l),
(161,610,l),
(672,610,l),
(672,520,l),
(67,520,l)
);
}
);
vertWidth = 588;
width = 1000;
}
);
note = cid59906;
unicode = 65092;
},
{
glyphname = whitelenticularbracketleft.vert;
lastChange = "2023-08-28 01:08:16 +0000";
layers = (
{
hints = (
{
horizontal = 1;
place = (179, 28);
place = (179, 28);
type = Stem;
},
{
horizontal = 1;
place = (242, 28);
place = (242, 28);
type = Stem;
},
{
place = (39, 28);
place = (39, 28);
type = Stem;
},
{
place = (933, 28);
place = (933, 28);
type = Stem;
}
);
layerId = m01;
shapes = (
{
closed = 1;
nodes = (
(60,329,l),
(124,478,o),
(280,589,o),
(500,589,cs),
(720,589,o),
(876,478,o),
(940,329,c),
(961,329,l),
(961,680,l),
(39,680,l),
(39,329,l)
);
},
{
closed = 1;
nodes = (
(67,652,l),
(933,652,l),
(933,400,l),
(881,485,o),
(749,617,o),
(500,617,cs),
(251,617,o),
(119,485,o),
(67,400,c)
);
}
);
vertWidth = 590;
width = 1000;
}
);
note = cid59883;
unicode = 65047;
},
{
glyphname = whitelenticularbracketright.vert;
lastChange = "2023-08-28 01:08:21 +0000";
layers = (
{
hints = (
{
horizontal = 1;
place = (498, 28);
place = (498, 28);
type = Stem;
},
{
horizontal = 1;
place = (562, 28);
place = (562, 28);
type = Stem;
},
{
place = (39, 28);
place = (39, 28);
type = Stem;
},
{
place = (933, 28);
place = (933, 28);
type = Stem;
}
);
layerId = m01;
shapes = (
{
closed = 1;
nodes = (
(39,498,l),
(961,498,l),
(961,850,l),
(940,850,l),
(876,700,o),
(720,590,o),
(500,590,cs),
(280,590,o),
(124,700,o),
(60,850,c),
(39,850,l)
);
},
{
closed = 1;
nodes = (
(749,562,o),
(881,693,o),
(933,779,c),
(933,526,l),
(67,526,l),
(67,779,l),
(119,693,o),
(251,562,o),
(500,562,cs)
);
}
);
vertWidth = 582;
width = 1000;
}
);
note = cid59884;
unicode = 65048;
},
{
glyphname = braceleft.full.vert;
lastChange = "2023-08-28 01:08:27 +0000";
layers = (
{
hints = (
{
horizontal = 1;
place = (58, 60);
place = (58, 60);
type = Stem;
},
{
place = (14, 37);
place = (14, 37);
type = Stem;
},
{
place = (948.5, 37.5);
place = (948.5, 37.5);
type = Stem;
},
{
horizontal = 1;
place = (28, 45);
place = (28, 45);
type = Stem;
}
);
layerId = m01;
shapes = (
{
closed = 1;
nodes = (
(483,680,l),
(469,567,o),
(434,531,o),
(379,531,cs),
(324,531,o),
(238,576,o),
(154,576,cs),
(64,576,o),
(14,516,o),
(14,379,cs),
(14,338,l),
(50,338,l),
(52,381,ls),
(59,486,o),
(90,516,o),
(160,516,cs),
(241,516,o),
(308,486,o),
(370,486,cs),
(429,486,o),
(482,517,o),
(500,606,c),
(518,517,o),
(570,486,o),
(630,486,cs),
(691,486,o),
(759,516,o),
(840,516,cs),
(910,516,o),
(941,486,o),
(947,381,cs),
(950,338,l),
(986,338,l),
(986,379,ls),
(986,516,o),
(936,576,o),
(846,576,cs),
(762,576,o),
(676,531,o),
(621,531,cs),
(566,531,o),
(531,567,o),
(517,680,c)
);
}
);
vertWidth = 542;
width = 1000;
}
);
note = cid59893;
unicode = 65079;
},
{
glyphname = braceright.full.vert;
lastChange = "2023-08-28 01:08:33 +0000";
layers = (
{
hints = (
{
horizontal = 1;
place = (640, 60);
place = (640, 60);
type = Stem;
},
{
place = (14, 37.5);
place = (14, 37.5);
type = Stem;
},
{
place = (949, 37);
place = (949, 37);
type = Stem;
},
{
horizontal = 1;
place = (685, 45);
place = (685, 45);
type = Stem;
}
);
layerId = m01;
shapes = (
{
closed = 1;
nodes = (
(950,878,l),
(948,836,ls),
(941,730,o),
(910,700,o),
(840,700,cs),
(759,700,o),
(692,730,o),
(630,730,cs),
(571,730,o),
(518,699,o),
(500,611,c),
(482,699,o),
(430,730,o),
(370,730,cs),
(309,730,o),
(241,700,o),
(160,700,cs),
(90,700,o),
(59,730,o),
(53,836,cs),
(50,878,l),
(14,878,l),
(14,837,ls),
(14,701,o),
(64,640,o),
(154,640,cs),
(238,640,o),
(324,685,o),
(379,685,cs),
(434,685,o),
(469,650,o),
(483,537,c),
(517,537,l),
(531,650,o),
(566,685,o),
(621,685,cs),
(676,685,o),
(762,640,o),
(847,640,cs),
(936,640,o),
(986,701,o),
(986,837,cs),
(986,878,l)
);
}
);
vertWidth = 543;
width = 1000;
}
);
note = cid59894;
unicode = 65080;
},
{
glyphname = bracketleft.full.vert;
lastChange = "2023-08-28 01:08:39 +0000";
layers = (
{
hints = (
{
horizontal = 1;
place = (134, 35);
place = (134, 35);
type = Stem;
},
{
place = (39, 36);
place = (39, 36);
type = Stem;
},
{
place = (925, 36);
place = (925, 36);
type = Stem;
}
);
layerId = m01;
shapes = (
{
closed = 1;
nodes = (
(39,680,l),
(39,430,l),
(75,430,l),
(75,645,l),
(925,645,l),
(925,430,l),
(961,430,l),
(961,680,l)
);
}
);
vertWidth = 489;
width = 1000;
}
);
note = cid59909;
unicode = 65095;
},
{
glyphname = bracketright.full.vert;
lastChange = "2023-08-28 01:08:45 +0000";
layers = (
{
hints = (
{
horizontal = 1;
place = (591, 35);
place = (591, 35);
type = Stem;
},
{
place = (39, 36);
place = (39, 36);
type = Stem;
},
{
place = (925, 36);
place = (925, 36);
type = Stem;
}
);
layerId = m01;
shapes = (
{
closed = 1;
nodes = (
(961,591,l),
(961,841,l),
(925,841,l),
(925,626,l),
(75,626,l),
(75,841,l),
(39,841,l),
(39,591,l)
);
}
);
vertWidth = 489;
width = 1000;
}
);
note = cid59910;
unicode = 65096;
},
{
glyphname = parenleft.full.vert;
lastChange = "2023-08-28 01:08:50 +0000";
layers = (
{
hints = (
{
horizontal = 1;
place = (169, 59);
place = (169, 59);
type = Stem;
},
{
place = (33, 934);
place = (33, 934);
type = Stem;
}
);
layerId = m01;
shapes = (
{
closed = 1;
nodes = (
(260,680,o),
(119,547,o),
(33,415,c),
(54,396,l),
(146,514,o),
(292,621,o),
(500,621,cs),
(708,621,o),
(854,514,o),
(946,396,c),
(967,415,l),
(881,547,o),
(740,680,o),
(500,680,cs)
);
}
);
vertWidth = 548;
width = 1000;
}
);
note = cid59891;
unicode = 65077;
},
